<?xml version="1.0" standalone="no"?><!DOCTYPE svg PUBLIC "-//W3C//DTD SVG 1.1//EN" "http://www.w3.org/Graphics/SVG/1.1/DTD/svg11.dtd"><svg class="icon" width="200px" height="200.00px" viewBox="0 0 1024 1024" version="1.1" xmlns="http://www.w3.org/2000/svg"><path fill="#333333" d="M473.145 1023.456a93.6 93.6 0 0 1-93.92-92.96L378.859 864c-184.608 40.128-223.536-78.32-223.536-78.32-30.192-76.656-73.712-97.04-73.712-97.04-60.192-41.216 4.56-40.384 4.56-40.384 66.576 4.656 101.648 68.4 101.648 68.4 59.184 101.408 155.248 72.096 193.072 55.168 5.952-42.88 23.168-72.16 42.144-88.768-147.36-16.736-302.272-73.68-302.272-327.855 0-72.432 25.92-131.6 68.384-178.08-6.88-16.752-29.6-84.208 6.4-175.568 0 0 55.744-17.824 182.512 68a636.64 636.64 0 0 1 166.08-22.32c56.335 0.24 113.135 7.584 166.175 22.336C836.97-16.287 892.633 1.537 892.633 1.537c36.096 91.408 13.392 158.88 6.512 175.568 42.512 46.432 68.288 105.648 68.288 178.08 0 254.847-155.248 310.943-302.944 327.36 23.776 20.607 44.992 60.96 44.992 122.88 0 88.8-0.32 125.04-0.32 125.04a93.648 93.648 0 0 1-93.84 92.991H473.13z" /></svg>